ply
format ascii 1.0
comment PCL generated
element vertex 397
property float x
property float y
property float z
property uchar red
property uchar green
property uchar blue
element face 474
property list uchar int vertex_index
end_header
4.6818e-05 0.093736 1.019 184 192 173 
4.3058e-05 0.16359 1.3894 184 192 173 
4.2379e-05 0.38382 1.1315 184 192 173 
3.8809e-05 0.45694 1.4725 184 192 173 
4.1075e-05 0.15528 1.6554 184 192 173 
4.0776e-05 0.036165 1.8799 184 192 173 
3.9084e-05 0.32514 1.6437 184 192 173 
3.7112e-05 0.31332 1.9137 184 192 173 
3.72e-05 0.12953 2.19 184 192 173 
3.6185e-05 0.034332 2.4685 184 192 173 
3.3581e-05 0.34366 2.3168 184 192 173 
3.2362e-05 0.3269 2.4985 184 192 173 
3.356e-05 0.038118 2.7975 184 192 173 
3.1876e-05 0.048391 2.9962 184 192 173 
2.885e-05 0.39173 2.8451 184 192 173 
3.0111e-05 0.24387 2.9155 184 192 173 
4.4348e-05 0.78654 0.2502 184 192 173 
4.2877e-05 0.96435 0.15974 184 192 173 
4.2458e-05 0.77795 0.50474 184 192 173 
4.1459e-05 0.70377 0.74826 184 192 173 
4.0956e-05 0.95272 0.423 184 192 173 
3.823e-05 0.94538 0.78222 184 192 173 
3.8374e-05 1.3209 0.17629 184 192 173 
3.6462e-05 1.5073 0.12868 184 192 173 
3.9574e-05 1.1371 0.31075 184 192 173 
3.5179e-05 1.268 0.66664 184 192 173 
3.431e-05 1.5635 0.31527 184 192 173 
3.2102e-05 1.5304 0.64865 184 192 173 
3.0746e-05 1.8802 0.2746 184 192 173 
2.819e-05 2.1443 0.18741 184 192 173 
2.8345e-05 1.8917 0.56288 184 192 173 
2.8071e-05 1.8031 0.73632 184 192 173 
2.6176e-05 2.1606 0.41873 184 192 173 
2.392e-05 2.2049 0.63735 184 192 173 
2.5324e-05 2.3973 0.15728 184 192 173 
2.0769e-05 2.6867 0.28552 184 192 173 
2.2566e-05 2.4256 0.46489 184 192 173 
2.0133e-05 2.4799 0.69033 184 192 173 
1.8794e-05 2.6691 0.56503 184 192 173 
1.6235e-05 2.7707 0.73263 184 192 173 
3.9736e-05 0.62469 1.0918 184 192 173 
3.6542e-05 0.7105 1.365 184 192 173 
3.8109e-05 0.8372 0.9669 184 192 173 
3.4497e-05 0.953 1.2466 184 192 173 
3.3696e-05 0.73622 1.6879 184 192 173 
3.2655e-05 0.65764 1.9437 184 192 173 
3.1363e-05 0.99355 1.5829 184 192 173 
2.9374e-05 0.91581 1.9584 184 192 173 
3.4152e-05 1.1413 0.99601 184 192 173 
3.0727e-05 1.2453 1.2701 184 192 173 
3.1737e-05 1.3798 0.93099 184 192 173 
2.714e-05 1.4469 1.4124 184 192 173 
2.7253e-05 1.3092 1.6134 184 192 173 
2.6152e-05 1.2263 1.8836 184 192 173 
2.4477e-05 1.4935 1.6793 184 192 173 
2.3393e-05 1.4401 1.9011 184 192 173 
3.0771e-05 0.62962 2.2278 184 192 173 
2.6739e-05 0.76663 2.5279 184 192 173 
2.5878e-05 1.0272 2.23 184 192 173 
2.4019e-05 1.0281 2.4659 184 192 173 
2.7037e-05 0.59499 2.7584 184 192 173 
2.4819e-05 0.63024 2.9862 184 192 173 
2.185e-05 0.99154 2.7998 184 192 173 
2.0883e-05 0.98048 2.9405 184 192 173 
2.2728e-05 1.3071 2.1941 184 192 173 
1.9327e-05 1.3192 2.6091 184 192 173 
2.133e-05 1.4305 2.1795 184 192 173 
1.8031e-05 1.4995 2.4923 184 192 173 
1.8597e-05 1.2631 2.7901 184 192 173 
1.8734e-05 1.1364 2.9706 184 192 173 
1.4439e-05 1.6223 2.7584 184 192 173 
1.3865e-05 1.5299 2.9763 184 192 173 
1.0361e-05 1.9403 2.7812 184 192 173 
9.5307e-06 1.9101 2.9345 184 192 173 
7.625e-06 2.121 2.8475 184 192 173 
7.2235e-06 2.1138 2.9101 184 192 173 
4.7418e-06 2.3754 2.8174 184 192 173 
2.8956e-06 2.4157 2.9898 184 192 173 
-1.3241e-06 2.8112 2.9095 184 192 173 
-4.2266e-08 2.6682 2.9696 184 192 173 
1.7327e-05 3.0071 0.22339 184 192 173 
1.4852e-05 3.2477 0.16278 184 192 173 
1.4817e-05 2.9748 0.59417 184 192 173 
1.3462e-05 3.0218 0.69358 184 192 173 
1.1682e-05 3.3214 0.45195 184 192 173 
7.7393e-06 3.4413 0.76741 184 192 173 
1.1432e-05 3.4922 0.21663 184 192 173 
5.6566e-06 3.9711 0.20416 184 192 173 
7.4109e-06 3.6774 0.43984 184 192 173 
7.0489e-06 3.5793 0.63953 184 192 173 
2.3872e-06 4.0555 0.48923 184 192 173 
4.0792e-06 3.7998 0.67347 184 192 173 
1.4851e-06 4.2756 0.25998 184 192 173 
-5.6846e-07 4.5345 0.11699 184 192 173 
-2.3989e-06 4.3515 0.63674 184 192 173 
-1.6391e-06 4.2253 0.73735 184 192 173 
-2.4687e-06 4.5536 0.32954 184 192 173 
-5.4332e-06 4.5187 0.76233 184 192 173 
-3.9513e-06 4.7724 0.17633 184 192 173 
-5.9289e-06 4.9518 0.14798 184 192 173 
-6.308e-06 4.7852 0.45695 184 192 173 
-8.7913e-06 4.8249 0.71165 184 192 173 
-8.4385e-06 4.9892 0.40959 184 192 173 
3.4729e-06 3.5888 1.0809 184 192 173 
1.4805e-06 3.6016 1.315 184 192 173 
7.2641e-07 3.8952 0.95188 184 192 173 
-3.7024e-06 3.9952 1.3605 184 192 173 
-1.387e-06 3.6449 1.6131 184 192 173 
-3.4229e-06 3.5925 1.9548 184 192 173 
-5.7078e-06 3.9355 1.7098 184 192 173 
-7.3021e-06 3.8362 2.0685 184 192 173 
-2.9286e-06 3.0058 2.8096 184 192 173 
-5.4547e-06 3.11 2.9689 184 192 173 
-7.9842e-06 3.3795 2.87 184 192 173 
-8.4306e-06 3.3399 2.989 184 192 173 
-5.0369e-06 3.583 2.1756 184 192 173 
-8.4184e-06 3.6782 2.4582 184 192 173 
-9.9203e-06 3.9632 2.2039 184 192 173 
-1.2944e-05 4.0017 2.5293 184 192 173 
-1.1363e-05 3.7264 2.7583 184 192 173 
-1.083e-05 3.5864 2.9094 184 192 173 
-1.6195e-05 4.042 2.8811 184 192 173 
-1.4247e-05 3.8681 2.9046 184 192 173 
-2.6143e-06 4.1373 0.99929 184 192 173 
-6.4263e-06 4.2781 1.2653 184 192 173 
-7.7547e-06 4.561 0.99222 184 192 173 
-9.9973e-06 4.4796 1.4058 184 192 173 
-8.0284e-06 4.1919 1.6047 184 192 173 
-1.0541e-05 4.2088 1.8988 184 192 173 
-1.19e-05 4.4864 1.6378 184 192 173 
-1.528e-05 4.5312 1.9989 184 192 173 
-1.1817e-05 4.8578 1.0462 184 192 173 
-1.2538e-05 4.751 1.3053 184 192 173 
-1.5366e-05 4.9483 1.3575 184 192 173 
-1.596e-05 4.7675 1.7161 184 192 173 
-1.8774e-05 4.8728 1.9104 184 192 173 
-1.6723e-05 4.9226 1.5708 184 192 173 
-2.0426e-05 4.9348 2.024 184 192 173 
-1.3275e-05 4.2247 2.2227 184 192 173 
-1.6152e-05 4.2736 2.5134 184 192 173 
-1.8093e-05 4.5381 2.3471 184 192 173 
-1.9668e-05 4.4892 2.6245 184 192 173 
-1.787e-05 4.2333 2.7955 184 192 173 
-1.9713e-05 4.2603 2.9884 184 192 173 
-2.1812e-05 4.512 2.8624 184 192 173 
-2.2209e-05 4.4872 2.9519 184 192 173 
-2.0994e-05 4.8211 2.2745 184 192 173 
-2.142e-05 4.6926 2.5299 184 192 173 
-2.2848e-05 4.9916 2.2443 184 192 173 
-2.4706e-05 4.9405 2.5613 184 192 173 
-2.403e-05 4.7285 2.8067 184 192 173 
-2.6977e-05 4.8958 2.9209 184 192 173 
-2.8618e-05 4.9863 2.9887 255 255 0 
-2.7827e-05 4.9775 2.9015 255 255 1 
-2.7142e-05 4.9918 2.7918 255 255 2 
-2.617e-05 4.9846 2.679 255 255 3 
-2.5593e-05 4.999 2.5829 255 255 4 
-2.524e-05 4.9951 2.5439 255 255 5 
-2.4608e-05 4.9921 2.468 255 255 6 
-2.4301e-05 4.997 2.4212 255 255 7 
-2.3894e-05 4.9971 2.369 255 255 8 
-2.3053e-05 4.9996 2.2579 255 255 9 
-2.2179e-05 4.9827 2.1728 255 255 10 
-2.1809e-05 4.9896 2.1148 255 255 11 
-2.0841e-05 4.989 1.9924 255 255 12 
-1.9948e-05 4.979 1.8939 255 255 13 
-1.9586e-05 4.982 1.8431 255 255 14 
-1.8535e-05 4.9792 1.7134 255 255 15 
-1.7795e-05 4.9834 1.6124 255 255 16 
-1.6829e-05 4.9845 1.4874 255 255 17 
-1.6207e-05 4.9862 1.4054 255 255 18 
-1.5813e-05 4.9895 1.35 255 255 19 
-1.5275e-05 4.9973 1.2692 255 255 20 
-1.4927e-05 4.994 1.23 255 255 21 
-1.3781e-05 4.9918 1.0871 255 255 22 
-1.2543e-05 4.9725 0.95934 255 255 23 
-1.2169e-05 4.9855 0.89136 255 255 24 
-1.1435e-05 4.9906 0.78963 255 255 26 
-1.0554e-05 4.9788 0.69581 255 255 27 
-1.0166e-05 4.9883 0.63131 255 255 28 
-9.3753e-06 4.9881 0.53081 255 255 29 
-8.1832e-06 4.9988 0.36202 255 255 30 
-7.3183e-06 4.9946 0.25816 255 255 31 
-6.2488e-06 4.9984 0.11586 255 255 32 
-5.462e-06 4.936 0.11303 255 255 33 
-4.9925e-06 4.8975 0.1134 255 255 34 
-3.2207e-06 4.7495 0.11897 255 255 35 
-1.1073e-06 4.5883 0.10148 255 255 36 
5.461e-07 4.4447 0.11515 255 255 37 
1.4802e-06 4.364 0.12232 255 255 38 
2.2856e-06 4.2986 0.12184 255 255 39 
3.6431e-06 4.1932 0.11352 255 255 40 
4.7651e-06 4.106 0.10686 255 255 41 
5.7803e-06 4.0239 0.10584 255 255 42 
8.18e-06 3.8285 0.10535 255 255 43 
9.2518e-06 3.7384 0.10955 255 255 44 
9.9277e-06 3.6886 0.10128 255 255 45 
1.0857e-05 3.6098 0.10601 255 255 46 
1.1833e-05 3.5346 0.099035 255 255 47 
1.3668e-05 3.3795 0.10758 255 255 48 
1.411e-05 3.338 0.11616 255 255 49 
1.4685e-05 3.289 0.11949 255 255 51 
1.592e-05 3.1999 0.10128 255 255 52 
1.6474e-05 3.1562 0.099018 255 255 53 
1.7379e-05 3.0811 0.10104 255 255 54 
1.8235e-05 3.0028 0.11426 255 255 55 
1.9463e-05 2.9071 0.10747 255 255 56 
1.9999e-05 2.8689 0.098776 255 255 57 
2.0823e-05 2.7989 0.10321 255 255 58 
2.1547e-05 2.7419 0.099879 255 255 59 
2.2239e-05 2.686 0.099087 255 255 60 
2.2882e-05 2.6296 0.10532 255 255 61 
2.4102e-05 2.5325 0.10175 255 255 62 
2.5103e-05 2.4514 0.10085 255 255 63 
2.6601e-05 2.3177 0.11892 255 255 64 
2.8266e-05 2.1921 0.10291 255 255 65 
2.9396e-05 2.1026 0.098757 255 255 66 
2.9898e-05 2.0461 0.12323 255 255 67 
3.1349e-05 1.9395 0.10472 255 255 68 
3.2171e-05 1.8574 0.12835 255 255 69 
3.3484e-05 1.7647 0.10592 255 255 70 
3.4656e-05 1.6685 0.10699 255 255 71 
3.5245e-05 1.6226 0.10359 255 255 72 
3.6556e-05 1.5136 0.10686 255 255 73 
3.8155e-05 1.3745 0.12046 255 255 74 
3.8856e-05 1.3238 0.11022 255 255 75 
3.9801e-05 1.2455 0.11237 255 255 77 
4.0924e-05 1.1546 0.11119 255 255 78 
4.1068e-05 1.1433 0.11048 255 255 79 
4.2065e-05 1.0593 0.11474 255 255 80 
4.258e-05 1.0238 0.10458 255 255 81 
4.4786e-05 0.84709 0.09957 255 255 82 
4.6094e-05 0.73557 0.10715 255 255 83 
4.5933e-05 0.70655 0.1731 255 255 84 
4.5624e-05 0.71124 0.20515 255 255 85 
4.4901e-05 0.70101 0.31351 255 255 86 
4.4239e-05 0.70381 0.39351 255 255 87 
4.3946e-05 0.70372 0.43109 255 255 88 
4.2997e-05 0.70569 0.54903 255 255 89 
4.2406e-05 0.70057 0.63247 255 255 90 
4.1459e-05 0.70377 0.74826 255 255 91 
4e-05 0.71409 0.9183 255 255 92 
4.0803e-05 0.58322 1.0206 255 255 93 
4.197e-05 0.49089 1.0162 255 255 94 
4.208e-05 0.48185 1.0163 255 255 95 
4.3718e-05 0.35776 1.0014 255 255 96 
4.5225e-05 0.23441 1.0021 255 255 97 
4.6563e-05 0.12489 1.0028 255 255 98 
4.7078e-05 0.076285 1.0131 255 255 99 
4.7908e-05 0.0019962 1.0234 255 255 100 
4.7579e-05 0.0014061 1.0664 255 255 102 
4.6545e-05 0.0061567 1.1909 255 255 103 
4.6012e-05 -0.00090916 1.2699 255 255 104 
4.5575e-05 0.0059225 1.3149 255 255 105 
4.4614e-05 0.0034161 1.4415 255 255 106 
4.3205e-05 0.0005668 1.6257 255 255 107 
4.2301e-05 0.0026629 1.7377 255 255 108 
4.1281e-05 0.00068233 1.871 255 255 109 
4.0586e-05 0.0015508 1.9583 255 255 110 
4.0082e-05 0.0051459 2.017 255 255 111 
3.9908e-05 -7.9866e-05 2.0474 255 255 112 
3.9122e-05 0.0002614 2.147 255 255 113 
3.806e-05 0.0075367 2.2712 255 255 114 
3.7426e-05 0.0024278 2.3601 255 255 115 
3.6877e-05 0.0018636 2.4311 255 255 116 
3.5651e-05 0.011314 2.5727 255 255 117 
3.4498e-05 0.0074513 2.7258 255 255 118 
3.3819e-05 0.0070529 2.813 255 255 119 
3.3564e-05 0.0028428 2.8522 255 255 120 
3.3064e-05 0.00045566 2.9197 255 255 121 
3.2673e-05 -0.00085599 2.9716 255 255 122 
3.1876e-05 0.048391 2.9962 255 255 123 
3.044e-05 0.16663 2.9945 255 255 124 
2.841e-05 0.32986 2.9981 255 255 125 
2.7204e-05 0.42843 2.9977 255 255 126 
2.6586e-05 0.47785 2.9992 255 255 128 
2.4963e-05 0.61461 2.9923 255 255 129 
2.3855e-05 0.70415 2.9937 255 255 130 
2.3209e-05 0.75652 2.994 255 255 131 
2.1963e-05 0.86037 2.9906 255 255 132 
2.0789e-05 0.95983 2.9848 255 255 133 
2.0079e-05 1.0196 2.9819 255 255 134 
1.8852e-05 1.1168 2.9864 255 255 135 
1.8387e-05 1.1507 2.9926 255 255 136 
1.7442e-05 1.2232 2.9997 255 255 137 
1.6795e-05 1.2864 2.9834 255 255 138 
1.5232e-05 1.419 2.9754 255 255 139 
1.3583e-05 1.544 2.9902 255 255 140 
1.2422e-05 1.6355 2.9951 255 255 141 
1.1995e-05 1.6834 2.9747 255 255 142 
9.9775e-06 1.8338 2.9968 255 255 143 
9.0057e-06 1.9152 2.9933 255 255 144 
8.4146e-06 1.9595 2.9995 255 255 145 
6.7709e-06 2.0932 3 255 255 146 
6.1121e-06 2.15 2.9951 255 255 147 
5.0006e-06 2.2432 2.9912 255 255 148 
4.1549e-06 2.3185 2.9812 255 255 149 
2.9746e-06 2.4082 2.9916 255 255 150 
1.1789e-06 2.5511 2.997 255 255 151 
-2.6578e-07 2.6727 2.9911 255 255 153 
-1.4022e-06 2.7727 2.9797 255 255 154 
-3.0468e-06 2.9057 2.9814 255 255 155 
-4.9223e-06 3.0496 2.9956 255 255 156 
-6.4795e-06 3.1783 2.9928 255 255 157 
-7.7388e-06 3.2865 2.9843 255 255 158 
-8.5501e-06 3.3478 2.9919 255 255 159 
-9.2553e-06 3.4046 2.993 255 255 160 
-1.0414e-05 3.4967 2.9967 255 255 161 
-1.1435e-05 3.5802 2.9962 255 255 162 
-1.2562e-05 3.6706 2.9986 255 255 163 
-1.2948e-05 3.7038 2.9959 255 255 164 
-1.3649e-05 3.7605 2.9966 255 255 165 
-1.4909e-05 3.8621 2.9985 255 255 166 
-1.6493e-05 3.9976 2.9886 255 255 167 
-1.7693e-05 4.0991 2.9828 255 255 168 
-1.889e-05 4.1945 2.9864 255 255 169 
-1.9713e-05 4.2603 2.9884 255 255 170 
-2.1505e-05 4.4064 2.9884 255 255 171 
-2.2385e-05 4.4872 2.9742 255 255 172 
-2.2649e-05 4.5087 2.9744 255 255 173 
-2.4052e-05 4.6127 2.9905 255 255 174 
-2.671e-05 4.8347 2.9825 255 255 175 
-2.7599e-05 4.8968 2.9987 255 255 176 
2.1448e-05 2.3098 0.78863 255 255 177 
2.2649e-05 2.2126 0.7875 255 255 179 
2.3215e-05 2.1754 0.77349 255 255 180 
2.4513e-05 2.0538 0.79816 255 255 181 
2.6374e-05 1.9015 0.79891 255 255 182 
2.7831e-05 1.7845 0.79602 255 255 183 
2.9644e-05 1.6361 0.79694 255 255 184 
3.0853e-05 1.4763 0.89277 255 255 185 
2.9987e-05 1.4892 0.98312 255 255 186 
2.9517e-05 1.4856 1.0487 255 255 187 
2.8223e-05 1.4813 1.2204 255 255 188 
2.7246e-05 1.4794 1.3481 255 255 189 
2.6365e-05 1.497 1.4329 255 255 190 
2.6037e-05 1.4922 1.4823 255 255 191 
2.5225e-05 1.4863 1.5951 255 255 192 
2.4012e-05 1.4988 1.7303 255 255 193 
2.309e-05 1.4885 1.864 255 255 194 
2.2505e-05 1.4827 1.9478 255 255 195 
2.1495e-05 1.4875 2.0692 255 255 196 
2.0727e-05 1.4887 2.1653 255 255 197 
2.0348e-05 1.4938 2.2056 255 255 198 
1.9862e-05 1.4849 2.2815 255 255 199 
1.9537e-05 1.4944 2.3082 255 255 200 
1.8847e-05 1.4853 2.4104 255 255 201 
1.8031e-05 1.4995 2.4923 255 255 202 
1.752e-05 1.4842 2.5814 255 255 204 
1.5093e-05 1.6041 2.7035 255 255 205 
1.3755e-05 1.7106 2.7076 255 255 206 
1.2176e-05 1.8433 2.7014 255 255 207 
1.1032e-05 1.9314 2.7096 255 255 208 
1.038e-05 1.9845 2.7097 255 255 209 
9.9331e-06 2.0207 2.7101 255 255 210 
8.6246e-06 2.1306 2.705 255 255 211 
6.3482e-06 2.3176 2.7029 255 255 212 
5.4868e-06 2.383 2.7105 255 255 213 
4.8523e-06 2.4406 2.7013 255 255 214 
3.7767e-06 2.5273 2.7028 255 255 215 
3.5514e-06 2.547 2.7008 255 255 216 
2.0497e-06 2.6677 2.7035 255 255 217 
9.5088e-07 2.7588 2.7012 255 255 218 
-3.3174e-07 2.861 2.7049 255 255 219 
-2.1912e-06 3.0155 2.7005 255 255 220 
-3.5008e-06 3.1196 2.7046 255 255 221 
-4.7904e-06 3.2178 2.7155 255 255 222 
-5.6417e-06 3.2937 2.7054 255 255 223 
-7.6429e-06 3.5187 2.6088 255 255 224 
-6.7247e-06 3.5018 2.518 255 255 225 
-6.2679e-06 3.5166 2.4366 255 255 226 
-5.5111e-06 3.5171 2.3393 255 255 227 
-5.2536e-06 3.5229 2.2973 255 255 228 
-4.3284e-06 3.5094 2.2004 255 255 230 
-4.0643e-06 3.5077 2.1694 255 255 231 
-3.2159e-06 3.5024 2.0695 255 255 232 
-2.1383e-06 3.5108 1.9189 255 255 233 
-1.7078e-06 3.5032 1.8757 255 255 234 
-1.0165e-06 3.5081 1.7799 255 255 235 
-3.9249e-07 3.505 1.7052 255 255 236 
1.2899e-07 3.5004 1.6459 255 255 237 
9.464e-07 3.515 1.5187 255 255 238 
2.1266e-06 3.5006 1.3907 255 255 239 
3.0514e-06 3.5032 1.2685 255 255 240 
3.9066e-06 3.5012 1.1625 255 255 241 
4.7528e-06 3.5018 1.0537 255 255 242 
5.5931e-06 3.5042 0.94279 255 255 243 
8.0058e-06 3.4018 0.79516 255 255 244 
9.8542e-06 3.2554 0.78835 255 255 245 
1.0972e-05 3.1578 0.79833 255 255 246 
1.1658e-05 3.1066 0.79101 255 255 247 
1.4469e-05 2.8804 0.78625 255 255 248 
1.6744e-05 2.6978 0.78176 255 255 249 
1.7563e-05 2.6215 0.79662 255 255 250 
1.831e-05 2.5657 0.78854 255 255 251 
1.9692e-05 2.456 0.78406 255 255 252 
2.0983e-05 2.351 0.78346 255 255 253 
3 304 114 113
3 32 33 30
3 41 2 40
3 25 21 20
3 14 15 12
3 39 83 104
3 305 304 113
3 108 54 39
3 76 74 72
3 142 141 144
3 111 78 76
3 89 85 84
3 39 38 82
3 24 20 17
3 232 17 16
3 31 30 33
3 22 26 24
3 30 28 32
3 82 83 39
3 154 151 155
3 108 39 107
3 38 35 82
3 1 2 3
3 18 237 20
3 53 52 55
3 16 17 20
3 43 46 41
3 7 5 4
3 62 63 278
3 4 1 6
3 60 62 277
3 11 56 57
3 55 76 72
3 74 76 294
3 271 15 272
3 79 78 299
3 67 65 64
3 67 70 65
3 65 59 64
3 45 7 6
3 110 115 108
3 113 112 111
3 116 113 111
3 119 120 113
3 303 114 304
3 273 14 274
3 314 121 142
3 118 117 138
3 122 118 121
3 319 150 151
3 141 147 150
3 109 110 108
3 121 118 142
3 138 140 139
3 128 127 129
3 106 109 107
3 103 83 85
3 104 107 39
3 108 76 54
3 82 84 83
3 103 105 104
3 90 91 88
3 225 22 226
3 84 88 89
3 105 123 106
3 100 97 96
3 97 94 96
3 87 90 88
3 2 251 246
3 232 231 17
3 24 25 20
3 243 242 40
3 20 21 18
3 241 242 19
3 50 25 27
3 48 42 21
3 230 24 17
3 26 25 24
3 223 26 23
3 23 26 22
3 225 23 22
3 36 35 38
3 222 28 26
3 52 51 54
3 218 29 28
3 206 205 80
3 29 32 28
3 32 34 36
3 51 33 37
3 32 36 33
3 27 30 31
3 26 28 30
3 51 49 50
3 27 26 30
3 50 48 25
3 25 26 27
3 47 45 44
3 21 19 240
3 31 50 27
3 43 40 42
3 49 52 46
3 49 43 48
3 31 51 50
3 53 58 47
3 33 51 31
3 55 54 76
3 50 49 48
3 51 52 49
3 3 41 44
3 43 49 46
3 44 41 46
3 40 43 41
3 43 42 48
3 241 19 21
3 48 21 25
3 42 241 21
3 4 254 1
3 234 233 16
3 253 1 254
3 233 232 16
3 1 3 6
3 2 41 3
3 8 259 7
3 6 7 4
3 10 263 8
3 250 248 0
3 44 45 6
3 56 10 7
3 3 44 6
3 60 57 62
3 46 47 44
3 46 52 53
3 58 56 47
3 56 7 45
3 10 56 11
3 45 47 56
3 14 12 11
3 10 9 263
3 12 266 11
3 259 258 5
3 60 61 275
3 14 60 274
3 11 60 14
3 59 58 64
3 15 14 272
3 11 57 60
3 56 58 57
3 9 10 11
3 8 7 10
3 59 62 57
3 65 68 62
3 63 69 280
3 63 62 69
3 73 75 291
3 288 73 289
3 290 73 291
3 72 75 73
3 72 74 75
3 66 55 72
3 111 76 108
3 79 297 76
3 72 67 66
3 70 71 285
3 72 70 67
3 72 73 70
3 62 68 69
3 65 70 68
3 62 59 65
3 57 58 59
3 64 53 55
3 47 46 53
3 67 64 66
3 58 53 64
3 64 55 66
3 54 37 39
3 52 54 55
3 51 37 54
3 131 174 132
3 128 117 110
3 126 127 124
3 128 109 127
3 126 129 127
3 130 138 128
3 130 128 129
3 138 117 128
3 139 118 138
3 118 116 117
3 128 110 109
3 117 115 110
3 109 108 107
3 115 111 108
3 116 111 115
3 78 79 76
3 113 120 306
3 119 118 122
3 112 301 111
3 299 298 79
3 120 119 309
3 310 119 122
3 311 143 315
3 314 142 143
3 142 118 139
3 116 115 117
3 119 116 118
3 119 113 116
3 139 141 142
3 139 140 141
3 315 144 145
3 142 144 315
3 144 141 150
3 144 150 318
3 147 140 146
3 319 151 152
3 150 147 149
3 150 149 156
3 272 274 13
3 130 140 138
3 147 141 140
3 147 146 159
3 134 167 135
3 146 140 130
3 163 146 137
3 159 158 149
3 134 130 129
3 137 146 130
3 136 168 134
3 135 130 134
3 129 126 134
3 137 130 135
3 170 136 133
3 181 101 100
3 174 133 132
3 136 134 132
3 131 132 125
3 133 136 132
3 125 101 131
3 100 96 98
3 97 95 94
3 106 127 109
3 125 97 101
3 125 95 97
3 125 124 123
3 125 132 126
3 125 126 124
3 132 134 126
3 105 106 104
3 124 127 106
3 103 104 83
3 106 107 104
3 89 103 85
3 91 105 103
3 86 88 84
3 91 103 89
3 80 82 35
3 84 85 83
3 95 105 91
3 123 124 106
3 95 123 105
3 95 125 123
3 80 84 82
3 81 86 84
3 37 38 39
3 37 33 36
3 37 36 38
3 32 29 34
3 36 34 35
3 81 84 80
3 193 192 92
3 208 80 35
3 195 87 88
3 88 91 89
3 198 88 86
3 90 92 94
3 94 95 90
3 197 196 88
3 81 201 86
3 92 96 94
3 193 92 87
3 189 96 92
3 92 90 87
3 95 91 90
3 181 102 182
3 97 100 101
3 96 93 188
3 100 98 183
3 98 99 183
3 187 98 188
3 150 155 151
3 151 153 152
3 151 154 153
3 156 149 157
3 150 156 155
3 161 146 162
3 149 158 157
3 149 147 159
3 148 162 146
3 146 160 159
3 148 146 163
3 160 146 161
3 148 163 162
3 137 135 165
3 163 137 164
3 164 137 165
3 167 166 135
3 165 135 166
3 169 168 136
3 167 134 168
3 170 169 136
3 171 170 133
3 172 171 133
3 173 172 133
3 133 174 173
3 131 101 177
3 174 131 175
3 177 176 131
3 175 131 176
3 178 177 101
3 180 179 101
3 178 101 179
3 101 181 180
3 100 102 181
3 102 100 182
3 100 183 182
3 99 184 183
3 98 186 99
3 99 185 184
3 99 186 185
3 93 96 189
3 98 187 186
3 98 96 188
3 188 93 189
3 191 190 92
3 189 92 190
3 196 195 88
3 191 92 192
3 194 193 87
3 194 87 195
3 198 197 88
3 198 86 199
3 200 199 86
3 201 200 86
3 80 204 81
3 203 202 81
3 201 81 202
3 203 81 204
3 80 205 204
3 207 80 208
3 34 213 35
3 80 207 206
3 209 35 210
3 35 209 208
3 212 35 213
3 210 35 211
3 35 212 211
3 34 29 215
3 213 34 214
3 216 215 29
3 214 34 215
3 216 29 217
3 219 218 28
3 217 29 218
3 221 220 28
3 219 28 220
3 221 28 222
3 222 26 223
3 223 23 224
3 23 225 224
3 22 24 227
3 226 22 227
3 227 24 228
3 228 24 229
3 229 24 230
3 230 17 231
3 20 237 16
3 235 234 16
3 237 236 16
3 235 16 236
3 239 238 18
3 18 238 237
3 21 240 18
3 18 240 239
3 19 243 244
3 40 241 42
3 251 2 1
3 40 242 241
3 40 2 243
3 245 19 244
3 19 242 243
3 245 244 2
3 243 2 244
3 246 245 2
3 240 19 245
3 247 246 0
3 248 247 0
3 246 251 0
3 251 250 0
3 7 259 5
3 1 252 251
3 1 253 252
3 4 5 256
3 255 254 4
3 256 255 4
3 257 256 5
3 258 257 5
3 262 261 8
3 8 260 259
3 261 260 8
3 8 263 262
3 11 265 9
3 12 15 271
3 264 263 9
3 265 264 9
3 266 265 11
3 267 266 12
3 268 267 12
3 271 268 12
3 270 269 13
3 269 271 13
3 283 69 68
3 271 272 13
3 14 273 272
3 296 77 297
3 60 275 274
3 61 60 276
3 275 61 276
3 276 60 277
3 277 62 278
3 278 63 279
3 281 280 69
3 279 63 280
3 69 282 281
3 69 283 282
3 68 284 283
3 285 71 286
3 68 285 284
3 68 70 285
3 70 287 71
3 71 287 286
3 70 288 287
3 70 73 288
3 73 290 289
3 75 292 291
3 75 293 292
3 75 74 294
3 75 294 293
3 295 76 296
3 76 295 294
3 76 77 296
3 77 76 297
3 79 298 297
3 111 300 78
3 300 111 301
3 78 300 299
3 112 113 302
3 301 112 302
3 113 303 302
3 113 114 303
3 307 306 120
3 306 305 113
3 120 308 307
3 120 309 308
3 122 121 312
3 309 119 310
3 122 311 310
3 311 122 312
3 314 313 121
3 312 121 313
3 311 314 143
3 142 315 143
3 145 316 315
3 145 144 317
3 318 317 144
3 316 145 317
3 318 150 319
